<svg xmlns="http://www.w3.org/2000/svg" width="28" height="18"><path fill="#FF6033" d="M.966 8.836c-.659.398-.981.845-.965 1.34v1.34c.015.495.345.934.99 1.317l6.926 3.998a.327.327 0 0 0 .472-.168l1.555-3.758-3.299-1.868a.592.592 0 0 1-.314-.438.605.605 0 0 1 .29-.615l6.056-3.711 2.497-6.08a.146.146 0 0 0-.046-.162.14.14 0 0 0-.082-.031.14.14 0 0 0-.084.025L.966 8.835zM26.46 4.933 19.628.79a.327.327 0 0 0-.471.144l-1.602 3.758 3.251 1.94a.606.606 0 0 1 0 1.053l-6.102 3.591-2.592 6.033a.145.145 0 0 0 .06.232.14.14 0 0 0 .152-.04l4.477-2.705 1.767 2.538a.426.426 0 0 0 .353.191h4.241a.42.42 0 0 0 .375-.228.436.436 0 0 0-.021-.442L20.64 12.45l5.82-3.519c.66-.4.99-.846.99-1.341V6.273c0-.495-.33-.941-.99-1.34z"/></svg>